PathFileType	4	(X/Y/Z)	C:/Users/opensim2020/Desktop/walking_exp_matlab/subject06_walking16_straight_04.trc																																																																																																																																																							
DataRate	CameraRate	NumFrames	NumMarkers	Units	OrigDataRate	OrigDataStartFrame	OrigNumFrames																																																																																																																																																			
100	100	4	51	mm	100	3921	352																																																																																																																																																			
Frame#	Time	LFHD			RFHD			LBHD			RBHD			C7			T10			CLAV			STRN			RBAK			LSHO			LUPA			LELB			LFRM			LWRA			LWRB			LFIN			RSHO			RUPA			RELB			RFRM			RWRA			RWRB			RFIN			LASI			RASI			LPSI			RPSI			LTHI			LKNE			LTIB			LANK			LHEE			LTOE			RTHI			RKNE			RTIB			RANK			RHEE			RTOE			*39			*40			*41			*42			*43			*44			*45			*46			*47			*48			*49			*50		
		X1	Y1	Z1	X2	Y2	Z2	X3	Y3	Z3	X4	Y4	Z4	X5	Y5	Z5	X6	Y6	Z6	X7	Y7	Z7	X8	Y8	Z8	X9	Y9	Z9	X10	Y10	Z10	X11	Y11	Z11	X12	Y12	Z12	X13	Y13	Z13	X14	Y14	Z14	X15	Y15	Z15	X16	Y16	Z16	X17	Y17	Z17	X18	Y18	Z18	X19	Y19	Z19	X20	Y20	Z20	X21	Y21	Z21	X22	Y22	Z22	X23	Y23	Z23	X24	Y24	Z24	X25	Y25	Z25	X26	Y26	Z26	X27	Y27	Z27	X28	Y28	Z28	X29	Y29	Z29	X30	Y30	Z30	X31	Y31	Z31	X32	Y32	Z32	X33	Y33	Z33	X34	Y34	Z34	X35	Y35	Z35	X36	Y36	Z36	X37	Y37	Z37	X38	Y38	Z38	X39	Y39	Z39	X40	Y40	Z40	X41	Y41	Z41	X42	Y42	Z42	X43	Y43	Z43	X44	Y44	Z44	X45	Y45	Z45	X46	Y46	Z46	X47	Y47	Z47	X48	Y48	Z48	X49	Y49	Z49	X50	Y50	Z50	X51	Y51	Z51
																																																																																																																																																										
89	0.88	-709.66028	1667.56055	-1516.50037	-715.90997	1653.521	-1385.79639	-842.31555	1611.42444	-1524.95642	-846.75244	1602.77649	-1396.58801	-843.24945	1452.15466	-1468.34656	-869.30188	1122.27966	-1458.6676	-730.38	1377.78369	-1465.31494	-688.00964	1202.74731	-1467.08887	-912.29999	1282.28174	-1384.31042	-785.62079	1407.87	-1628.22119	-815.16821	1209.4552	-1698.77808	-838.23395	1099.36523	-1708.23279	-834.78656	948.26306	-1726.83093	-795.82794	827.09955	-1678.18677	-852.93427	830.40863	-1722.38586	-824.44757	743.32111	-1716.24902	-777.20276	1411.0531	-1305.59424	-810.51483	1214.61829	-1212.177	-797.26666	1093.81628	-1195.64978	-768.41388	977.53369	-1175.51501	-690.16864	847.78351	-1204.4176	-743.8183	842.6059	-1163.89465	-696.04291	772.97913	-1160.65039	-674.64056	969.34216	-1554.23584	-695.04248	970.24084	-1334.96741	-836.64386	992.33704	-1539.29456	-844.66248	992.23743	-1371.34009	-718.03186	656.3692	-1620.21252	-704.09229	492.68054	-1598.80017	-701.18762	237.2388	-1588.91992	-675.05219	67.40388	-1543.91272	-710.20502	52.30247	-1494.83276	-528.44061	45.27723	-1544.01819	-770.09515	631.60052	-1282.72144	-775.46832	504.07745	-1297.35254	-948.65936	298.7843	-1308.50537	-1064.36426	153.44174	-1353.44934	-1107.37988	155.15422	-1400.9574	-964.17285	37.75132	-1355.60156	-813.44153	1703.08081	-1461.61157	NaN	NaN	NaN	NaN	NaN	NaN	NaN	NaN	NaN	NaN	NaN	NaN	NaN	NaN	NaN	NaN	NaN	NaN	NaN	NaN	NaN	NaN	NaN	NaN	NaN	NaN	NaN	NaN	NaN	NaN	NaN	NaN	NaN
90	0.89	-703.81976	1667.94519	-1518.17566	-710.0946	1654.0199	-1387.57996	-836.37891	1611.42798	-1526.73157	-840.89789	1602.92773	-1398.38379	-836.87366	1452.31726	-1470.05408	-862.57916	1122.43896	-1460.68018	-723.87573	1378.18726	-1467.04346	-681.06091	1203.16785	-1468.9198	-905.63342	1282.24011	-1386.29883	-779.06714	1408.42102	-1629.86743	-807.0788	1209.88428	-1700.92419	-829.04047	1099.5658	-1710.58606	-823.90082	948.8067	-1729.48169	-783.26965	827.93353	-1680.3667	-840.52289	830.69208	-1724.87646	-810.55023	743.77441	-1718.49072	-770.85767	1411.2782	-1307.35413	-804.69318	1214.93005	-1214.03284	-791.66412	1094.07483	-1197.42029	-763.40955	977.74103	-1177.09192	-685.70734	847.49707	-1205.84998	-739.39471	842.61426	-1165.33838	-692.14905	772.61096	-1162.18115	-668.06366	969.23804	-1556.07825	-688.50476	970.78137	-1336.82385	-830.1026	992.52325	-1541.05688	-838.23877	992.49823	-1373.14099	-712.56287	656.31421	-1621.25659	-700.18634	492.44742	-1599.81531	-699.31268	236.98708	-1589.1001	-674.25293	67.35617	-1543.44873	-709.61383	52.64047	-1494.52136	-527.76971	44.46364	-1543.92371	-760.58368	631.77826	-1282.70056	-764.06451	504.21701	-1296.16687	-939.35706	301.81973	-1308.91101	-1057.74658	158.77426	-1354.19385	-1099.33472	161.89337	-1402.55762	-962.51965	38.63727	-1355.71838	-807.83087	1703.26038	-1463.45825	NaN	NaN	NaN	NaN	NaN	NaN	NaN	NaN	NaN	NaN	NaN	NaN	NaN	NaN	NaN	NaN	NaN	NaN	NaN	NaN	NaN	NaN	NaN	NaN	NaN	NaN	NaN	NaN	NaN	NaN	NaN	NaN	NaN
91	0.9	-698.13068	1668.20447	-1519.91919	-704.46277	1654.36353	-1389.2926	-830.46313	1611.23633	-1528.48865	-835.00653	1602.84167	-1400.10059	-830.57953	1452.3551	-1471.7583	-855.98944	1122.4657	-1462.67847	-717.51166	1378.3562	-1468.69702	-674.45325	1203.34033	-1470.63428	-899.1781	1282.13086	-1388.34668	-772.54388	1408.75464	-1631.49866	-798.97748	1210.11584	-1703.1012	-819.82861	1099.58191	-1712.98999	-812.70972	948.88702	-1731.8988	-770.44165	828.66229	-1682.85742	-827.65088	830.33118	-1726.97974	-796.44867	744.09601	-1720.84888	-764.59601	1411.24792	-1309.06274	-798.53485	1215.08826	-1215.45605	-786.10419	1094.1239	-1199.09583	-758.32977	977.71967	-1178.60645	-681.36877	847.03796	-1207.30469	-734.81738	842.4978	-1166.84229	-688.04865	772.09052	-1163.8949	-661.67554	969.03918	-1557.78076	-682.29187	971.12891	-1338.46106	-823.67999	992.54559	-1542.73596	-832.02356	992.53998	-1374.854	-707.05841	656.19031	-1622.17664	-696.18365	492.21838	-1600.73645	-696.9137	236.7729	-1589.3457	-673.02106	67.31606	-1542.81311	-708.97101	53.06559	-1494.17004	-526.7099	43.70764	-1543.0658	-751.15692	631.95807	-1282.60583	-752.33038	504.35007	-1295.22192	-929.63977	304.78503	-1309.22192	-1050.24023	164.11893	-1354.79834	-1090.99683	168.58041	-1404.00085	-960.19598	40.15724	-1355.60449	-802.24841	1703.22925	-1465.3075	NaN	NaN	NaN	NaN	NaN	NaN	NaN	NaN	NaN	NaN	NaN	NaN	NaN	NaN	NaN	NaN	NaN	NaN	NaN	NaN	NaN	NaN	NaN	NaN	NaN	NaN	NaN	NaN	NaN	NaN	NaN	NaN	NaN
92	0.91	-692.38782	1668.33398	-1521.52991	-698.7478	1654.59363	-1390.93372	-824.54425	1610.90625	-1530.17944	-829.15802	1602.57922	-1401.76624	-824.26605	1452.25134	-1473.3988	-849.578	1122.34424	-1464.70398	-711.13715	1378.33972	-1470.28394	-667.98431	1203.35608	-1472.30225	-892.8941	1281.9115	-1390.38391	-766.00842	1408.93701	-1633.17859	-790.89661	1210.10901	-1705.22266	-810.63037	1099.4165	-1715.42383	-801.57831	948.86798	-1734.42737	-757.7243	829.30914	-1685.1748	-814.93402	830.09772	-1729.42346	-782.28101	744.36371	-1723.2738	-758.41125	1411.05383	-1310.71643	-792.71771	1214.96655	-1217.0592	-780.63568	1094.01758	-1200.67847	-753.21881	977.51251	-1180.13293	-676.56793	846.58344	-1208.72693	-730.41742	842.18011	-1168.13843	-683.69421	771.4931	-1165.33228	-655.31653	968.84143	-1559.44092	-676.33105	971.31012	-1340.04138	-817.40417	992.44623	-1544.36279	-826.06799	992.34692	-1376.42969	-701.64655	656.08344	-1622.98169	-692.02216	491.98529	-1601.57202	-694.07642	236.54485	-1589.6178	-672.23621	67.32111	-1542.40771	-708.35602	53.38973	-1493.8009	-525.86591	43.12604	-1542.44482	-741.77631	631.93616	-1282.50818	-740.62384	504.1839	-1294.29333	-919.56952	307.7713	-1309.43604	-1042.57129	169.58376	-1355.46533	-1082.86987	175.30823	-1405.05176	-956.65845	42.67302	-1355.42688	-796.70227	1703.0813	-1467.06384	NaN	NaN	NaN	NaN	NaN	NaN	NaN	NaN	NaN	NaN	NaN	NaN	NaN	NaN	NaN	NaN	NaN	NaN	NaN	NaN	NaN	NaN	NaN	NaN	NaN	NaN	NaN	NaN	NaN	NaN	NaN	NaN	NaN
